<?xml version="1.0" encoding="utf-8"?>
<!-- Generator: Adobe Illustrator 24.2.1, SVG Export Plug-In . SVG Version: 6.00 Build 0)  -->
<svg version="1.1" id="Layer_1" xmlns="http://www.w3.org/2000/svg" xmlns:xlink="http://www.w3.org/1999/xlink" x="0px" y="0px"
	 viewBox="0 0 1543 320" enable-background="new 0 0 1543 320" xml:space="preserve">
<g>
	<text transform="matrix(1 0 0 1 315.7916 204.9736)" fill="#FFFFFF" font-family="'ProximaNova-Bold'" font-size="183.3065px">thingsboard.gr</text>
	<g>
		
			<rect id="CUSTOM_1_" x="6.8" y="53.6" fill="none" stroke="#FFFFFF" stroke-width="10.4505" stroke-linecap="round" stroke-linejoin="round" stroke-miterlimit="10" width="213.5" height="213.5"/>
		<g id="CUSTOM-Group_1_">
			<path fill="#FFFFFF" d="M134.3,134.5H92.7c-2.8,0-5.1,2.3-5.1,5.1v41.6c0,2.8,2.3,5.1,5.1,5.1h41.6c2.8,0,5.1-2.3,5.1-5.1v-41.6
				C139.4,136.7,137.1,134.5,134.3,134.5z M129.1,176.1H97.8v-31.4h31.4V176.1z"/>
			<path fill="#FFFFFF" d="M159.8,145h11.1c2.1,6,7.8,10.2,14.5,10.2c8.5,0,15.3-6.9,15.3-15.3c0-8.5-6.9-15.3-15.3-15.3
				c-6.7,0-12.4,4.3-14.5,10.2h-11.1v-15.7c0-2.8-2.3-5.1-5.1-5.1h-25.9V93.5h16.3c2.1,6,7.8,10.2,14.5,10.2
				c8.5,0,15.3-6.9,15.3-15.3s-6.9-15.3-15.3-15.3c-6.7,0-12.4,4.3-14.5,10.2h-21.4c-2.8,0-5.1,2.3-5.1,5.1V114h-10.2V88.4
				c0-2.8-2.3-5.1-5.1-5.1H81.8c-2.1-6-7.8-10.2-14.5-10.2C58.9,73.1,52,80,52,88.4s6.9,15.3,15.3,15.3c6.7,0,12.4-4.3,14.5-10.2
				h16.3V114H72.2c-2.8,0-5.1,2.3-5.1,5.1v15.7H56c-2.1-6-7.8-10.2-14.5-10.2c-8.5,0-15.3,6.9-15.3,15.3c0,8.5,6.9,15.3,15.3,15.3
				c6.7,0,12.4-4.3,14.5-10.2h11.1v30.7H56c-2.1-6-7.8-10.2-14.5-10.2c-8.5,0-15.3,6.9-15.3,15.3c0,8.5,6.9,15.3,15.3,15.3
				c6.7,0,12.4-4.3,14.5-10.2h11.1v15.7c0,2.8,2.3,5.1,5.1,5.1h25.9v20.5H81.8c-2.1-6-7.8-10.2-14.5-10.2c-8.5,0-15.3,6.9-15.3,15.3
				c0,8.5,6.9,15.3,15.3,15.3c6.7,0,12.4-4.3,14.5-10.2h21.4c2.8,0,5.1-2.3,5.1-5.1v-25.6h10.2v25.6c0,2.8,2.3,5.1,5.1,5.1h21.4
				c2.1,6,7.8,10.2,14.5,10.2c8.5,0,15.3-6.9,15.3-15.3c0-8.5-6.9-15.3-15.3-15.3c-6.7,0-12.4,4.3-14.5,10.2h-16.3v-20.5h25.9
				c2.8,0,5.1-2.3,5.1-5.1v-15.7h11.1c2.1,6,7.8,10.2,14.5,10.2c8.5,0,15.3-6.9,15.3-15.3c0-8.5-6.9-15.3-15.3-15.3
				c-6.7,0-12.4,4.3-14.5,10.2h-11.1V145z M185.4,134.8c2.8,0,5.1,2.3,5.1,5.1c0,2.8-2.3,5.1-5.1,5.1c-2.8,0-5.1-2.3-5.1-5.1
				C180.3,137.1,182.6,134.8,185.4,134.8z M159.5,83.3c2.8,0,5.1,2.3,5.1,5.1c0,2.8-2.3,5.1-5.1,5.1c-2.8,0-5.1-2.3-5.1-5.1
				C154.4,85.6,156.7,83.3,159.5,83.3z M67.4,93.5c-2.8,0-5.1-2.3-5.1-5.1c0-2.8,2.3-5.1,5.1-5.1c2.8,0,5.1,2.3,5.1,5.1
				C72.5,91.2,70.2,93.5,67.4,93.5z M41.5,145c-2.8,0-5.1-2.3-5.1-5.1c0-2.8,2.3-5.1,5.1-5.1c2.8,0,5.1,2.3,5.1,5.1
				C46.6,142.7,44.3,145,41.5,145z M41.5,185.9c-2.8,0-5.1-2.3-5.1-5.1c0-2.8,2.3-5.1,5.1-5.1c2.8,0,5.1,2.3,5.1,5.1
				C46.6,183.7,44.3,185.9,41.5,185.9z M67.4,237.4c-2.8,0-5.1-2.3-5.1-5.1c0-2.8,2.3-5.1,5.1-5.1c2.8,0,5.1,2.3,5.1,5.1
				C72.5,235.1,70.2,237.4,67.4,237.4z M159.5,227.2c2.8,0,5.1,2.3,5.1,5.1c0,2.8-2.3,5.1-5.1,5.1c-2.8,0-5.1-2.3-5.1-5.1
				C154.4,229.5,156.7,227.2,159.5,227.2z M185.4,175.7c2.8,0,5.1,2.3,5.1,5.1c0,2.8-2.3,5.1-5.1,5.1c-2.8,0-5.1-2.3-5.1-5.1
				C180.3,178,182.6,175.7,185.4,175.7z M149.6,196.5H77.3v-72.3h72.3V196.5z"/>
		</g>
	</g>
</g>
</svg>
