<?xml version="1.0" encoding="utf-8"?>
<!-- Generator: Adobe Illustrator 24.2.1, SVG Export Plug-In . SVG Version: 6.00 Build 0)  -->
<svg version="1.1" id="Layer_1" xmlns="http://www.w3.org/2000/svg" xmlns:xlink="http://www.w3.org/1999/xlink" x="0px" y="0px"
	 viewBox="0 0 1543 320" enable-background="new 0 0 1543 320" xml:space="preserve">
<g>
	<g>
		<path fill="#FFFFFF" d="M331.9,183v-46.2h-14.7v-20.3h14.7V92.2h23.5v24.2h18v20.3h-18v40c0,5.5,2.9,9.7,8.1,9.7
			c3.5,0,6.8-1.3,8.1-2.6l4.9,17.6c-3.5,3.1-9.7,5.7-19.4,5.7C340.7,207.2,331.9,198.7,331.9,183z"/>
		<path fill="#FFFFFF" d="M449.2,205v-53.9c0-12.3-6.4-16.1-16.5-16.1c-9,0-16.1,5.1-20.2,10.4V205h-23.3V82.7h23.3V128
			c5.7-6.8,16.7-13.7,31.2-13.7c19.4,0,28.8,10.6,28.8,27.9V205H449.2z"/>
		<path fill="#FFFFFF" d="M493.2,93c0-7.7,6.4-13.7,13.9-13.7c7.7,0,13.9,6,13.9,13.7s-6.2,13.9-13.9,13.9
			C499.6,106.9,493.2,100.7,493.2,93z M495.6,205v-88.5h23.3V205H495.6z"/>
		<path fill="#FFFFFF" d="M601.7,205v-53.5c0-12.3-6.4-16.5-16.3-16.5c-9.2,0-16.3,5.1-20.2,10.4V205H542v-88.5h23.3V128
			c5.7-6.8,16.5-13.7,31-13.7c19.4,0,28.8,11,28.8,28.2V205H601.7z"/>
		<path fill="#FFFFFF" d="M646.3,227.7l10.4-16.9c7.1,7.9,16.5,11,27.7,11s24.4-4.9,24.4-22.4v-9c-7,8.8-16.5,13.9-27.3,13.9
			c-22.2,0-39-15.6-39-45.1c0-29,16.7-45.1,39-45.1c10.6,0,20.2,4.6,27.3,13.6v-11.4h23.5v82.5c0,33.7-26,42-47.8,42
			C669.2,240.9,657.5,237.4,646.3,227.7z M708.8,173.6V145c-3.8-5.9-12.3-10.1-20-10.1c-13.2,0-22.4,9.2-22.4,24.4
			c0,15.2,9.2,24.4,22.4,24.4C696.5,183.7,704.9,179.3,708.8,173.6z"/>
		<path fill="#FFFFFF" d="M747.7,193.4l10.1-16.3c6.4,6,19.6,12.1,30.6,12.1c10.1,0,14.8-4,14.8-9.5c0-14.7-52.6-2.8-52.6-37.6
			c0-14.8,13-27.9,36.3-27.9c15,0,26.9,5.1,35.7,12.1l-9.3,15.9c-5.3-5.7-15.4-10.3-26.2-10.3c-8.4,0-13.9,3.8-13.9,8.8
			c0,13.2,52.4,2.2,52.4,37.9c0,16.1-13.7,28.4-38.3,28.4C771.9,207.2,757,202,747.7,193.4z"/>
		<path fill="#FFFFFF" d="M842.8,205V82.7h23.3v45.1c7-9,16.9-13.6,27.3-13.6c22.5,0,39.2,17.6,39.2,46.6
			c0,29.5-16.9,46.4-39.2,46.4c-10.6,0-20.3-4.8-27.3-13.6V205H842.8z M886,186.5c13.6,0,22.5-10.3,22.5-25.7
			c0-15.4-9-25.8-22.5-25.8c-7.5,0-16.1,4.4-20,10.3v31.3C869.9,182.2,878.5,186.5,886,186.5z"/>
		<path fill="#FFFFFF" d="M944.5,160.6c0-25.1,17.6-46.4,46.7-46.4c29.3,0,46.9,21.3,46.9,46.4c0,25.3-17.6,46.6-46.9,46.6
			C962.1,207.2,944.5,185.9,944.5,160.6z M1014,160.6c0-13.7-8.2-25.7-22.7-25.7c-14.5,0-22.5,11.9-22.5,25.7
			c0,13.9,8.1,25.8,22.5,25.8C1005.7,186.5,1014,174.5,1014,160.6z"/>
		<path fill="#FFFFFF" d="M1108.6,205v-9.2c-6,7.1-16.5,11.4-28,11.4c-14.1,0-30.8-9.5-30.8-29.3c0-20.7,16.7-28.6,30.8-28.6
			c11.7,0,22.2,3.8,28,10.8v-11.9c0-9-7.7-14.8-19.4-14.8c-9.5,0-18.3,3.5-25.8,10.4l-8.8-15.6c10.8-9.5,24.7-13.9,38.7-13.9
			c20.2,0,38.7,8.1,38.7,33.5V205H1108.6z M1108.6,183.7v-11c-3.8-5.1-11.2-7.7-18.7-7.7c-9.2,0-16.7,4.8-16.7,13.4
			c0,8.2,7.5,13,16.7,13C1097.4,191.4,1104.7,188.8,1108.6,183.7z"/>
		<path fill="#FFFFFF" d="M1155,205v-88.5h23.3v12.1c6.2-7.9,17.2-14.3,28.2-14.3V137c-1.6-0.4-3.8-0.5-6.4-0.5
			c-7.7,0-18,4.4-21.8,10.1V205H1155z"/>
		<path fill="#FFFFFF" d="M1281.8,205v-11.4c-7,8.8-16.7,13.6-27.3,13.6c-22.4,0-39.2-16.9-39.2-46.4c0-29,16.7-46.6,39.2-46.6
			c10.4,0,20.3,4.6,27.3,13.6V82.7h23.5V205H1281.8z M1281.8,176.4V145c-3.8-5.9-12.3-10.1-20.2-10.1c-13.2,0-22.4,10.4-22.4,25.8
			c0,15.2,9.2,25.7,22.4,25.7C1269.5,186.5,1278,182.2,1281.8,176.4z"/>
		<path fill="#FFFFFF" d="M1325.4,192.1c0-8.1,6.8-14.8,14.8-14.8s14.8,6.8,14.8,14.8s-6.8,14.8-14.8,14.8
			S1325.4,200.2,1325.4,192.1z"/>
		<path fill="#FFFFFF" d="M1372.7,227.7l10.4-16.9c7.1,7.9,16.5,11,27.7,11c11.2,0,24.4-4.9,24.4-22.4v-9
			c-7,8.8-16.5,13.9-27.3,13.9c-22.2,0-39-15.6-39-45.1c0-29,16.7-45.1,39-45.1c10.6,0,20.2,4.6,27.3,13.6v-11.4h23.5v82.5
			c0,33.7-26,42-47.8,42C1395.6,240.9,1383.9,237.4,1372.7,227.7z M1435.2,173.6V145c-3.8-5.9-12.3-10.1-20-10.1
			c-13.2,0-22.4,9.2-22.4,24.4c0,15.2,9.2,24.4,22.4,24.4C1422.9,183.7,1431.4,179.3,1435.2,173.6z"/>
		<path fill="#FFFFFF" d="M1481.8,205v-88.5h23.3v12.1c6.2-7.9,17.2-14.3,28.2-14.3V137c-1.6-0.4-3.8-0.5-6.4-0.5
			c-7.7,0-18,4.4-21.8,10.1V205H1481.8z"/>
	</g>
	<g>
		
			<rect id="CUSTOM_1_" x="6.8" y="53.6" fill="none" stroke="#FFFFFF" stroke-width="10.4505" stroke-linecap="round" stroke-linejoin="round" stroke-miterlimit="10" width="213.5" height="213.5"/>
		<g id="CUSTOM-Group_1_">
			<path fill="#FFFFFF" d="M134.3,134.5H92.7c-2.8,0-5.1,2.3-5.1,5.1v41.6c0,2.8,2.3,5.1,5.1,5.1h41.6c2.8,0,5.1-2.3,5.1-5.1v-41.6
				C139.4,136.7,137.1,134.5,134.3,134.5z M129.1,176.1H97.8v-31.4h31.4V176.1z"/>
			<path fill="#FFFFFF" d="M159.8,145h11.1c2.1,6,7.8,10.2,14.5,10.2c8.5,0,15.3-6.9,15.3-15.3c0-8.5-6.9-15.3-15.3-15.3
				c-6.7,0-12.4,4.3-14.5,10.2h-11.1v-15.7c0-2.8-2.3-5.1-5.1-5.1h-25.9V93.5h16.3c2.1,6,7.8,10.2,14.5,10.2
				c8.5,0,15.3-6.9,15.3-15.3s-6.9-15.3-15.3-15.3c-6.7,0-12.4,4.3-14.5,10.2h-21.4c-2.8,0-5.1,2.3-5.1,5.1V114h-10.2V88.4
				c0-2.8-2.3-5.1-5.1-5.1H81.8c-2.1-6-7.8-10.2-14.5-10.2C58.9,73.1,52,80,52,88.4s6.9,15.3,15.3,15.3c6.7,0,12.4-4.3,14.5-10.2
				h16.3V114H72.2c-2.8,0-5.1,2.3-5.1,5.1v15.7H56c-2.1-6-7.8-10.2-14.5-10.2c-8.5,0-15.3,6.9-15.3,15.3c0,8.5,6.9,15.3,15.3,15.3
				c6.7,0,12.4-4.3,14.5-10.2h11.1v30.7H56c-2.1-6-7.8-10.2-14.5-10.2c-8.5,0-15.3,6.9-15.3,15.3c0,8.5,6.9,15.3,15.3,15.3
				c6.7,0,12.4-4.3,14.5-10.2h11.1v15.7c0,2.8,2.3,5.1,5.1,5.1h25.9v20.5H81.8c-2.1-6-7.8-10.2-14.5-10.2c-8.5,0-15.3,6.9-15.3,15.3
				c0,8.5,6.9,15.3,15.3,15.3c6.7,0,12.4-4.3,14.5-10.2h21.4c2.8,0,5.1-2.3,5.1-5.1v-25.6h10.2v25.6c0,2.8,2.3,5.1,5.1,5.1h21.4
				c2.1,6,7.8,10.2,14.5,10.2c8.5,0,15.3-6.9,15.3-15.3c0-8.5-6.9-15.3-15.3-15.3c-6.7,0-12.4,4.3-14.5,10.2h-16.3v-20.5h25.9
				c2.8,0,5.1-2.3,5.1-5.1v-15.7h11.1c2.1,6,7.8,10.2,14.5,10.2c8.5,0,15.3-6.9,15.3-15.3c0-8.5-6.9-15.3-15.3-15.3
				c-6.7,0-12.4,4.3-14.5,10.2h-11.1V145z M185.4,134.8c2.8,0,5.1,2.3,5.1,5.1c0,2.8-2.3,5.1-5.1,5.1c-2.8,0-5.1-2.3-5.1-5.1
				C180.3,137.1,182.6,134.8,185.4,134.8z M159.5,83.3c2.8,0,5.1,2.3,5.1,5.1c0,2.8-2.3,5.1-5.1,5.1c-2.8,0-5.1-2.3-5.1-5.1
				C154.4,85.6,156.7,83.3,159.5,83.3z M67.4,93.5c-2.8,0-5.1-2.3-5.1-5.1c0-2.8,2.3-5.1,5.1-5.1c2.8,0,5.1,2.3,5.1,5.1
				C72.5,91.2,70.2,93.5,67.4,93.5z M41.5,145c-2.8,0-5.1-2.3-5.1-5.1c0-2.8,2.3-5.1,5.1-5.1c2.8,0,5.1,2.3,5.1,5.1
				C46.6,142.7,44.3,145,41.5,145z M41.5,185.9c-2.8,0-5.1-2.3-5.1-5.1c0-2.8,2.3-5.1,5.1-5.1c2.8,0,5.1,2.3,5.1,5.1
				C46.6,183.7,44.3,185.9,41.5,185.9z M67.4,237.4c-2.8,0-5.1-2.3-5.1-5.1c0-2.8,2.3-5.1,5.1-5.1c2.8,0,5.1,2.3,5.1,5.1
				C72.5,235.1,70.2,237.4,67.4,237.4z M159.5,227.2c2.8,0,5.1,2.3,5.1,5.1c0,2.8-2.3,5.1-5.1,5.1c-2.8,0-5.1-2.3-5.1-5.1
				C154.4,229.5,156.7,227.2,159.5,227.2z M185.4,175.7c2.8,0,5.1,2.3,5.1,5.1c0,2.8-2.3,5.1-5.1,5.1c-2.8,0-5.1-2.3-5.1-5.1
				C180.3,178,182.6,175.7,185.4,175.7z M149.6,196.5H77.3v-72.3h72.3V196.5z"/>
		</g>
	</g>
</g>
</svg>
